<svg width="612" height="451" viewBox="0 0 612 451" fill="none" xmlns="http://www.w3.org/2000/svg">
<g clip-path="url(#clip0_123_15)">
<path d="M393.76 28.186C393.772 35.2868 391.09 42.1279 386.257 47.3301C385.89 47.7295 385.504 48.1157 385.111 48.4889C370.547 37.2797 355.273 27.0249 339.384 17.789C339.58 17.2914 339.79 16.8004 340.019 16.3159C342.723 10.4954 347.332 5.77208 353.085 2.92707C358.838 0.082073 365.39 -0.71417 371.657 0.670032C377.923 2.05423 383.53 5.53596 387.55 10.5394C391.569 15.5428 393.76 21.7682 393.76 28.186V28.186Z" fill="#F2F2F2"/>
<path d="M416.617 85.5396L416.591 85.8342C398.055 84.5575 379.522 83.2786 360.99 81.9976C347.601 81.0744 333.746 80.0269 321.915 73.6892C317.423 71.2863 313.05 68.0782 307.956 67.8556C301.638 67.5741 296.125 71.9934 291.79 76.6027C266.17 103.891 258.752 145.617 230.009 169.586C248.137 124.883 269.781 81.6861 294.737 40.4031C299.346 32.7756 304.813 24.6309 313.371 22.1429C321.535 19.7663 329.89 23.2363 337.406 27.6884C339.017 28.6443 340.588 29.646 342.107 30.6412C353.69 38.2228 365.082 46.0948 376.285 54.257C390.041 64.2677 403.485 74.6953 416.617 85.5396Z" fill="#F2F2F2"/>
<path d="M476.566 143.417C456.753 115.453 433.735 89.9041 407.981 67.2926C400.576 60.7847 392.953 54.5168 385.111 48.489C370.547 37.2797 355.273 27.025 339.384 17.7891C334.172 14.7643 328.899 11.8595 323.565 9.07472C319.421 6.9207 315.008 4.94997 310.228 5.25769C306.884 5.54349 303.69 6.77169 301.016 8.79974C295.143 13.0882 291.254 19.786 288.052 26.1695C285.249 31.7674 282.637 37.4766 279.972 43.153C278.84 45.5689 277.707 47.9783 276.535 50.3746C272.449 58.7681 268.268 67.1158 263.99 75.4177C258.477 86.1159 252.805 96.7333 246.973 107.27C234.723 129.419 221.796 151.169 208.193 172.52C188.197 203.9 166.804 234.33 144.015 263.807C141.219 267.415 140.066 268.253 137.231 271.834C136.577 272.672 135.411 271.494 136.059 270.662C159.702 240.781 180.287 212.549 201.043 180.586C216.691 156.485 231.48 131.85 245.408 106.681C249.88 98.608 254.258 90.485 258.542 82.3119C265.476 69.0799 272.17 55.7236 278.623 42.2429C280.326 38.6943 282.011 35.1326 283.678 31.5578C288.975 20.2115 296.688 3.33932 311.583 3.56847C315.963 3.63398 320.029 5.40824 323.866 7.37241C327.775 9.38242 331.612 11.5168 335.442 13.6839C336.974 14.5481 338.5 15.4255 340.019 16.3159C346.036 19.8121 351.964 23.4545 357.802 27.2432C367.544 33.5613 377.029 40.2569 386.257 47.3301C390.637 50.6888 394.952 54.1239 399.201 57.6354C425.864 79.6938 449.837 104.814 470.627 132.477C473.135 135.809 475.59 139.179 477.993 142.586C478.609 143.456 477.175 144.281 476.566 143.417Z" fill="#F6DACC"/>
<path d="M409.456 58.9594C410.321 57.9947 411.182 57.0299 412.053 56.0651C418.922 48.4681 426.293 40.9594 435.726 36.6041C440.224 34.4619 445.134 33.3237 450.116 33.2687C455.256 33.4098 460.324 34.515 465.056 36.5269C467.306 37.4255 469.506 38.4454 471.672 39.5315C474.148 40.7774 476.579 42.1061 478.999 43.4457C483.542 45.9597 488.026 48.5839 492.452 51.3184C501.256 56.7597 509.785 62.6164 518.038 68.8884C522.317 72.1411 526.507 75.5004 530.609 78.9662C534.424 82.1858 538.162 85.4918 541.823 88.8841C542.605 89.6063 543.774 88.4376 542.991 87.7154C542.027 86.8168 541.051 85.9237 540.075 85.0416C537.318 82.5497 534.518 80.1056 531.673 77.7092C526.485 73.3319 521.163 69.1236 515.706 65.0844C507.221 58.7995 498.444 52.941 489.375 47.5089C484.843 44.7965 480.249 42.198 475.592 39.7135C474.186 38.9637 472.764 38.2304 471.325 37.5358C468.06 35.889 464.668 34.5081 461.181 33.4065C456.241 31.8087 451.015 31.2954 445.86 31.9015C440.881 32.6256 436.085 34.2848 431.724 36.7915C422.462 41.9683 415.278 49.9732 408.287 57.7852C407.581 58.579 408.745 59.7533 409.456 58.9594Z" fill="#F6DACC"/>
<path d="M219.678 137.684L197.484 129.567L186.464 125.536C182.904 124.103 179.273 122.852 175.585 121.789C172.361 120.869 168.938 120.912 165.738 121.915C162.884 122.971 160.273 124.59 158.057 126.676C155.794 128.76 153.689 131.008 151.758 133.403C149.359 136.286 146.995 139.2 144.621 142.103C134.821 154.087 125.086 166.123 115.415 178.211C105.744 190.299 96.1376 202.438 86.5959 214.628C77.0309 226.848 67.5318 239.119 58.0984 251.442C56.9427 252.951 55.7881 254.462 54.6345 255.973C53.9971 256.807 52.56 255.984 53.2064 255.138C62.7094 242.692 72.2786 230.296 81.9141 217.952C91.5733 205.578 101.299 193.257 111.092 180.988C120.884 168.719 130.743 156.503 140.668 144.341C143.14 141.311 145.617 138.284 148.098 135.261C150.19 132.711 152.259 130.133 154.555 127.759C158.768 123.402 164.031 119.552 170.332 119.447C174.036 119.386 177.621 120.561 181.063 121.807C184.774 123.149 188.475 124.516 192.181 125.871L214.531 134.046L220.118 136.089C221.109 136.452 220.681 138.051 219.678 137.684L219.678 137.684Z" fill="#F6DACC"/>
<path d="M438.647 46.1634C449.926 40.3669 464.37 41.5022 474.734 48.744C454.965 52.1546 435.412 56.718 416.176 62.4109C424.164 57.7297 430.412 50.3955 438.647 46.1634Z" fill="#F2F2F2"/>
<path d="M474.845 48.724L477.016 50.4888C476.282 49.8711 475.518 49.292 474.734 48.744C474.771 48.7376 474.808 48.7304 474.845 48.724Z" fill="#F2F2F2"/>
<path d="M158.893 137.765C161.078 135.106 163.44 132.321 166.708 131.241L169.759 131.362C146.534 172.399 115.167 208.257 77.584 236.735C104.687 203.745 131.79 170.755 158.893 137.765Z" fill="#F2F2F2"/>
<path d="M418.175 146.178C416.245 152.088 412.047 156.99 406.504 159.806C400.961 162.622 394.527 163.121 388.615 161.194C387.946 160.976 387.291 160.729 386.65 160.452C381.27 158.146 376.948 153.912 374.533 148.58C372.118 143.249 371.785 137.207 373.599 131.643C374.175 129.871 374.961 128.175 375.943 126.591C378.956 121.711 383.655 118.105 389.148 116.456C394.641 114.807 400.549 115.229 405.752 117.642C410.956 120.055 415.094 124.292 417.383 129.551C419.672 134.81 419.954 140.726 418.175 146.178V146.178Z" fill="#A0616A"/>
<path d="M373.748 132.817C376.998 134.418 380.678 132.097 383.521 129.79L382.504 130.651C387.437 135.55 389.695 142.549 390.763 149.427C391.832 156.298 391.887 163.314 393.252 170.139C394.618 176.957 397.526 183.823 403.047 188.047C410.443 193.705 420.726 193.453 429.891 191.836C430.013 191.812 430.127 191.795 430.249 191.771C427.861 184.64 426.938 177.1 427.535 169.603C429.91 177.146 434.013 184.031 439.519 189.707C445.601 188.101 451.542 186.005 457.286 183.44C461.002 181.775 465.009 179.489 466.076 175.558C467.145 171.656 464.797 167.529 461.627 165.026C458.457 162.523 454.548 161.194 450.926 159.397C447.309 157.608 443.738 155.074 442.322 151.289C439.055 142.583 448.719 132.73 445.08 124.168C443.286 119.957 438.808 117.63 434.596 115.829C428.165 113.086 421.556 110.781 414.815 108.93C408.897 107.303 402.713 106.023 396.657 106.987C390.601 107.951 384.641 111.567 382.406 117.285C378.763 118.475 374.895 119.818 372.533 122.85C370.173 125.874 370.307 131.124 373.748 132.817Z" fill="#2F2E41"/>
<path d="M241.741 311.885C261.396 309.235 280.966 316.363 300.756 317.651C320.45 318.933 340.371 313.977 357.481 304.172C369.579 297.239 384.436 298.27 395.986 306.083C396.276 306.279 396.571 306.469 396.869 306.652C406.407 312.49 418.186 312.884 429.367 313.112L539.704 315.358C539.704 315.358 566.17 321.631 569.985 334.849C573.8 348.067 565.348 362.375 553.666 369.643C541.985 376.911 527.814 378.711 514.124 380.083C426.093 388.894 337.322 387.078 249.725 374.674C233.487 372.372 214.441 367.461 208.907 352.023C202.214 333.355 222.087 314.536 241.741 311.885Z" fill="#CCCCCC"/>
<path d="M489.556 338.067L420.263 329.757C413.799 328.982 407.908 325.671 403.885 320.552C399.863 315.433 398.039 308.926 398.814 302.463C399.589 295.999 402.9 290.108 408.019 286.086C413.138 282.063 419.645 280.239 426.109 281.014L495.403 289.325C501.864 290.103 507.752 293.415 511.772 298.533C515.792 303.651 517.615 310.156 516.84 316.618C516.065 323.079 512.756 328.969 507.639 332.991C502.523 337.014 496.019 338.839 489.556 338.067V338.067Z" fill="#2F2E41"/>
<path d="M475.971 163.81L486.127 173.661L499.11 179.42C499.11 179.42 495.281 258.47 499.7 264.093C504.119 269.716 499.574 269.308 499.801 275.952C500.027 282.595 500.876 296.26 500.876 296.26C464.832 310.135 435.555 307.112 414.603 283.304C414.458 281.97 414.774 280.626 415.498 279.495C416.222 278.365 417.311 277.516 418.584 277.089C423.23 275.295 416.132 263.47 419.919 262.09C423.706 260.709 420.567 244.416 420.567 244.416L427.787 212.075L425.812 206.529L436.003 175.271L447.505 172.568L453.179 162.491L475.971 163.81Z" fill="#64A9A5"/>
<path d="M340.177 238.2C341.281 237.295 342.569 236.643 343.951 236.291C345.333 235.938 346.776 235.892 348.178 236.157C349.58 236.422 350.906 236.991 352.064 237.824C353.222 238.657 354.184 239.734 354.88 240.979L389.021 234.898L381.892 251.448L350.565 254.686C348.396 255.718 345.924 255.918 343.617 255.249C341.31 254.58 339.329 253.088 338.048 251.056C336.768 249.024 336.278 246.593 336.67 244.224C337.062 241.854 338.31 239.711 340.177 238.2V238.2Z" fill="#FFB6B6"/>
<path d="M362.376 254.871L424.946 249.952L425.071 249.716C425.214 249.445 433.776 233.228 441.37 218.049C442.54 215.711 443.686 213.398 444.775 211.172C445.246 210.211 445.704 209.268 446.151 208.343C449.166 202.101 451.568 196.824 452.506 194.052C454.677 187.848 454.66 181.088 452.459 174.895L452.396 174.745L452.255 174.664C449.371 173.012 446.01 172.393 442.727 172.908C439.444 173.423 436.434 175.041 434.194 177.496C423.443 189.405 415.606 203.651 411.303 219.108L408.866 227.903L364.1 237.93L362.376 254.871Z" fill="#64A9A5"/>
<path d="M246.965 419.148L237.055 414.409L250.668 372.99L265.293 379.985L246.965 419.148Z" fill="#A0616A"/>
<path d="M313.401 412.471C312.68 412.922 311.96 413.366 311.232 413.81C309.783 414.698 308.32 415.571 306.857 416.43C306.122 416.86 305.379 417.289 304.644 417.712V417.733L304.601 417.741L304.586 417.748L303.465 418.024L301.856 413.774L301.114 411.816L300.066 409.043L298.144 403.969L288.026 377.256L303.756 373.377L304.346 375.786H304.353L304.644 376.98L310.14 399.267L311.261 403.824L311.297 403.962L311.974 406.684L312.556 409.042L313.204 411.677L313.401 412.471Z" fill="#A0616A"/>
<path d="M407.235 318.662C406.238 320.263 405.219 321.857 404.192 323.436C402.285 326.377 400.327 329.274 398.318 332.127C398.318 332.134 398.311 332.134 398.304 332.142C397.132 333.227 395.837 334.173 394.446 334.959C394.388 335.002 394.322 335.031 394.264 335.068C393.239 335.634 392.149 336.072 391.017 336.371C390.61 336.473 390.195 336.574 389.787 336.676C388.317 337.026 386.861 337.324 385.413 337.586C382.836 338.045 380.288 338.372 377.755 338.576C377.551 338.598 377.348 338.612 377.144 338.627C366.728 339.391 356.588 338.161 346.004 336.145C340.778 335.155 335.443 333.969 329.918 332.739C328.113 332.331 326.3 331.931 324.466 331.53C324.328 331.501 324.182 331.465 324.037 331.436C321.416 330.861 318.752 330.293 316.023 329.732C312.587 329.026 309.042 328.342 305.359 327.694L305.621 332.884C305.839 336.876 306.669 340.811 308.081 344.552C309.653 349.152 310.898 352.791 308.27 360.368L307.004 364.037C307.66 365.859 307.886 367.808 307.662 369.731C307.439 371.654 306.772 373.5 305.716 375.122L305.461 375.508L316.023 402.228L316.707 403.96H311.298L304.646 403.968H293.37L277.102 371.33L276.323 369.772V369.692L278.005 306.972C278.027 306.419 278.07 305.858 278.143 305.305C278.439 302.79 279.234 300.36 280.48 298.155C281.726 295.951 283.398 294.017 285.4 292.466C287.318 290.967 289.515 289.864 291.863 289.222C294.211 288.579 296.663 288.41 299.077 288.724L304.646 289.445L316.023 290.915L324.037 291.956L324.197 291.978L347.831 295.035L349.527 288.12L349.84 288.004L359.791 284.357L394.206 271.743L394.293 271.714L396.557 270.884L396.826 271.321C396.906 271.452 396.986 271.583 397.059 271.714C399.296 275.725 401.118 279.954 402.496 284.335C404.814 291.492 406.721 298.776 408.21 306.15C408.276 306.47 408.334 306.761 408.385 307.023L408.407 307.103C408.429 307.227 408.443 307.307 408.45 307.329C409.244 310.633 408.691 314.666 407.235 318.662Z" fill="#2F2E41"/>
<path d="M408.687 295.547C408.578 295.081 408.44 294.608 408.294 294.15C407.139 290.677 405.793 287.27 404.262 283.945C402.544 280.16 400.484 276.106 398.031 271.717C396.845 269.591 395.568 267.381 394.202 265.086C393.518 263.936 392.807 262.764 392.07 261.57C392.041 261.515 392.009 261.462 391.975 261.41L391.764 261.061L357.713 265.617L345.033 267.313L344.276 273.631L344.094 275.196C344.087 275.196 344.087 275.196 344.094 275.203L343.585 279.469V279.476L342.908 285.11L342.849 285.102L324.033 282.664L304.642 280.153L294.226 278.806C291.812 278.492 289.36 278.66 287.012 279.303C284.664 279.945 282.467 281.048 280.549 282.547C278.548 284.099 276.876 286.033 275.63 288.238C274.384 290.442 273.589 292.872 273.292 295.387C273.226 295.897 273.183 296.421 273.161 296.937L263.334 320.222C257.454 334.147 253.709 348.88 252.227 363.923L245.021 386.96L246.047 387.055L261.318 388.474L265.351 388.853L274.231 375.889C275.243 374.412 276.203 372.891 277.099 371.333C278.573 368.789 279.883 366.154 281.022 363.443L300.231 317.733C301.716 317.987 303.187 318.23 304.642 318.461C311.375 319.552 317.839 320.443 324.033 321.132C344.174 323.381 361.615 323.556 377.141 321.649C381.501 321.117 385.715 320.418 389.784 319.552C391.276 319.239 392.749 318.902 394.202 318.541C394.544 318.461 394.879 318.38 395.214 318.293C398.222 317.517 400.988 315.999 403.258 313.878C405.528 311.757 407.229 309.101 408.207 306.152C409.374 302.735 409.541 299.056 408.687 295.547V295.547Z" fill="#2F2E41"/>
<path d="M250.13 412.385L239.409 407.246L237.727 406.438L235.041 413.033L216.291 417.16C215.364 417.363 214.526 417.857 213.9 418.57C213.273 419.284 212.892 420.179 212.811 421.124C212.729 422.07 212.952 423.017 213.448 423.826C213.943 424.636 214.684 425.266 215.563 425.625L233.884 433.1L239.7 427.867L238.273 434.89L245.174 437.707L252.736 413.637L250.13 412.385Z" fill="#2F2E41"/>
<path d="M316.022 402.228L316.707 403.961H316.022V402.228Z" fill="#2F2E41"/>
<path d="M312.288 404.331L301.054 408.223L299.291 408.832L302.022 415.408L291.603 431.533C291.087 432.33 290.839 433.271 290.896 434.218C290.953 435.165 291.312 436.07 291.919 436.799C292.527 437.528 293.352 438.044 294.273 438.271C295.195 438.498 296.165 438.424 297.042 438.06L315.32 430.481L315.77 422.671L319.699 428.665L326.584 425.812L315.021 403.387L312.288 404.331Z" fill="#2F2E41"/>
<path d="M267.905 115.406C268.016 116.568 268.379 117.691 268.97 118.696C269.562 119.702 270.366 120.565 271.327 121.226C272.288 121.888 273.383 122.33 274.533 122.522C275.684 122.715 276.862 122.652 277.986 122.34L294.118 145.659L299.619 131.99L283.457 111.941C282.807 110.088 281.5 108.538 279.783 107.584C278.066 106.63 276.059 106.339 274.142 106.766C272.225 107.194 270.532 108.309 269.382 109.901C268.233 111.494 267.707 113.452 267.905 115.406Z" fill="#A0616A"/>
<path d="M281.774 128.271L296.658 120.709L328.47 162.083L385.746 179.066C388.577 179.906 391.189 181.358 393.395 183.321C395.602 185.283 397.349 187.707 398.514 190.42C399.678 193.134 400.231 196.071 400.133 199.022C400.034 201.973 399.288 204.867 397.945 207.497V207.497C395.516 212.245 391.302 215.835 386.228 217.48C381.154 219.124 375.636 218.689 370.882 216.27L310.947 185.684L281.774 128.271Z" fill="#FFB6B6"/>
<path d="M405.804 188.539C399.973 185.544 395.455 180.372 393.429 171.07L383.967 170.342L352.608 201.063C336.277 221.027 348.145 234.795 348.855 236.843L343.186 262.979L344.457 271.726L345.091 274.324L409.798 308.134L404.348 262.781L409.485 223.425C415.321 205.24 417.693 203.489 405.804 188.539Z" fill="#FFB6B6"/>
<path d="M354.46 340.258C355.464 339.665 356.326 338.859 356.985 337.896C357.644 336.934 358.084 335.839 358.274 334.688C358.464 333.537 358.4 332.358 358.085 331.235C357.77 330.112 357.213 329.071 356.452 328.187L370.706 303.675L355.994 304.504L344.714 327.654C343.313 329.03 342.465 330.872 342.331 332.831C342.197 334.791 342.787 336.731 343.988 338.285C345.19 339.838 346.919 340.898 348.849 341.261C350.779 341.625 352.776 341.268 354.46 340.258V340.258Z" fill="#A0616A"/>
<path d="M360.212 322.237L347.041 311.979L370.974 265.6L362.006 206.538C361.563 203.619 361.768 200.638 362.606 197.806C363.445 194.975 364.896 192.363 366.858 190.156C368.82 187.948 371.243 186.2 373.956 185.035C376.67 183.869 379.606 183.316 382.557 183.413V183.413C387.888 183.594 392.929 185.883 396.574 189.776C400.219 193.67 402.171 198.85 402.001 204.181L399.785 271.431L360.212 322.237Z" fill="#FFB6B6"/>
<path d="M414.949 419.259L423.577 427.132L458.052 397.598L445.317 385.979L414.949 419.259Z" fill="#FFB6B6"/>
<path d="M415.319 414.434L417.748 416.65L430.748 421.446L432.312 429.938L432.312 429.939C435.184 432.56 436.897 436.214 437.075 440.097C437.252 443.981 435.88 447.776 433.26 450.648L432.938 451L405.117 425.614L415.319 414.434Z" fill="#2F2E41"/>
<path d="M480.315 327.378L472.867 312.998C473.489 298.437 486.12 287.061 500.622 288.512C508.698 289.321 516.11 294.129 518.743 307.702C525.514 342.603 443.826 411.682 443.826 411.682L429.639 402.171L429.321 392.667L437.638 387.956L437.945 379.873L445.835 376.482L480.315 327.378Z" fill="#2F2E41"/>
<path d="M480.526 138.417C481.703 126.176 472.734 115.299 460.492 114.122C448.251 112.945 437.374 121.915 436.197 134.155C435.02 146.396 443.99 157.273 456.231 158.45C468.472 159.626 479.349 150.657 480.526 138.417Z" fill="#FFB6B6"/>
<path d="M442.139 115.51C444.472 110.382 453.899 107.577 468.658 108.479C483.417 109.382 485.482 127.075 485.482 127.075C494.536 135.985 472.18 155.359 471.271 154.497L472.098 150.532C473.468 143.966 477.073 139.086 473.786 131.79L469.986 131.468L462.654 132.161C462.197 132.204 461.739 132.095 461.349 131.852C460.96 131.609 460.662 131.245 460.5 130.815C460.338 130.385 460.322 129.914 460.454 129.475C460.587 129.035 460.86 128.651 461.232 128.383L461.303 128.331L461.164 128.062C458.516 128.982 455.799 129.809 453.011 129.706C449.875 129.589 446.584 128.02 445.354 125.132C445.027 124.34 444.863 123.49 444.871 122.633C440.503 123.909 438.081 128.909 438.081 128.909C438.081 128.909 439.806 120.637 442.139 115.51Z" fill="#2F2E41"/>
<path d="M476.289 417.075L466.54 423.508L437.087 388.965L451.477 379.471L476.289 417.075Z" fill="#FFB6B6"/>
<path d="M485.012 424.885L453.575 445.627L453.313 445.229C451.172 441.984 450.407 438.022 451.188 434.213C451.968 430.405 454.23 427.062 457.474 424.921L457.475 424.92L460.343 416.775L473.932 414.062L476.676 412.252L485.012 424.885Z" fill="#2F2E41"/>
<path d="M431.729 325.983L440.948 310.996C442.601 296.516 431.897 283.311 417.346 282.486C409.243 282.027 401.172 285.622 396.456 298.619C384.331 332.039 454.261 412.999 454.261 412.999L469.757 405.814L471.551 396.476L464.069 390.527L465.025 382.494L457.76 377.916L431.729 325.983Z" fill="#2F2E41"/>
<path d="M466.264 303.961C466.383 302.54 466.813 301.162 467.523 299.924C468.233 298.687 469.206 297.62 470.372 296.799C471.539 295.978 472.872 295.423 474.276 295.173C475.681 294.923 477.123 294.984 478.502 295.351L497.925 266.624L504.831 283.269L485.327 307.996C484.556 310.271 482.978 312.184 480.891 313.373C478.804 314.561 476.353 314.943 474.003 314.446C471.653 313.949 469.568 312.607 468.141 310.674C466.715 308.742 466.047 306.353 466.264 303.961H466.264Z" fill="#FFB6B6"/>
<path d="M493.689 299.653L533.755 251.343L533.672 251.089C533.578 250.798 527.909 233.357 522.311 217.334C521.449 214.867 520.589 212.433 519.75 210.101C519.389 209.094 519.032 208.108 518.679 207.143C516.302 200.631 514.19 195.232 512.856 192.627C509.917 186.748 505.056 182.05 499.08 179.314L498.929 179.255L498.772 179.299C495.578 180.218 492.792 182.197 490.874 184.91C488.956 187.624 488.02 190.911 488.22 194.228C489.273 210.238 494.032 225.784 502.123 239.64L506.734 247.516L482.737 286.613L493.689 299.653Z" fill="#64A9A5"/>
<path d="M115.01 423.501C170.688 423.501 215.823 409.387 215.823 391.978C215.823 374.568 170.688 360.455 115.01 360.455C59.3324 360.455 14.1968 374.568 14.1968 391.978C14.1968 409.387 59.3324 423.501 115.01 423.501Z" fill="#F2F2F2"/>
<path d="M115.01 417.369C159.858 417.369 196.214 406.001 196.214 391.978C196.214 377.955 159.858 366.587 115.01 366.587C70.1625 366.587 33.8064 377.955 33.8064 391.978C33.8064 406.001 70.1625 417.369 115.01 417.369Z" fill="#E6E6E6"/>
<path d="M157.462 373.984C152.744 373.348 148.046 375.059 143.295 375.368C139.318 375.589 135.347 374.839 131.724 373.184C128.101 371.528 124.935 369.017 122.498 365.866C123.937 368.133 122.513 371.326 120.223 372.728C117.933 374.13 115.106 374.224 112.422 374.279L85.935 374.818L86.4351 377.103C84.2399 374.636 79.5817 376.324 78.6659 379.497C77.7501 382.67 79.779 386.105 82.5832 387.849C85.3874 389.594 88.7892 390.026 92.0754 390.355C113.208 392.471 134.518 392.035 155.546 389.057C159.443 388.504 164.016 387.325 165.344 383.62C166.951 379.138 162.18 374.621 157.462 373.984Z" fill="#3F3D56"/>
<path d="M174.934 374.733C173.899 370.086 170.669 366.271 168.735 361.92C167.153 358.265 166.483 354.28 166.782 350.308C167.082 346.336 168.343 342.497 170.457 339.121C168.827 341.254 165.338 341.023 163.231 339.36C161.124 337.696 160.057 335.076 159.077 332.577L149.409 307.913L147.438 309.172C148.994 306.259 145.798 302.473 142.504 302.711C139.21 302.95 136.689 306.041 136.022 309.276C135.355 312.51 136.127 315.851 136.954 319.049C142.28 339.607 150.061 359.45 160.129 378.149C161.996 381.615 164.684 385.497 168.62 385.461C173.381 385.419 175.969 379.38 174.934 374.733Z" fill="#3F3D56"/>
<path d="M172.667 302.99C170.147 299.495 166.557 296.63 162.316 295.588C160.294 295.087 158.183 295.056 156.148 295.501C154.112 295.945 152.206 296.851 150.576 298.149C149.659 298.877 148.823 299.7 148.08 300.605C146.453 302.583 144.725 304.475 142.903 306.275C141.273 295.7 137.901 285.468 132.924 275.996C130.352 271.114 127.317 266.49 123.862 262.187C121.011 258.643 117.919 254.894 113.416 253.497C111.71 252.982 109.913 252.845 108.15 253.095C106.386 253.346 104.698 253.978 103.204 254.947C99.9898 257.118 97.6541 260.362 96.6154 264.098C95.9963 266.23 95.7244 268.447 95.8102 270.665C95.907 273.441 96.6503 276.117 97.1139 278.843C98.1263 284.853 98.3985 290.965 97.9243 297.042C97.0699 308.175 93.7132 319.325 87.4901 328.656C87.11 329.226 86.7186 329.788 86.3158 330.342C83.9164 323.763 80.2428 317.721 75.5054 312.563C74.6717 311.657 73.8051 310.783 72.9057 309.941C72.1671 309.145 71.2818 308.499 70.2983 308.039C66.5723 306.596 63.8946 310.819 64.2679 314.098C64.5385 316.476 66.0951 317.912 67.5605 319.654C69.2072 321.617 70.6952 323.709 72.0105 325.908C74.7252 330.366 76.6295 335.27 77.6353 340.391C78.6923 345.98 78.2004 351.568 76.9978 357.09C74.7842 367.255 70.8962 378.112 74.7687 388.409C76.3304 392.561 79.1861 396.153 83.333 397.928C85.0692 398.716 86.9649 399.089 88.8704 399.019C90.7758 398.948 92.6387 398.435 94.3116 397.52C94.7385 397.27 95.1479 396.992 95.5369 396.687C95.6446 396.89 95.7646 397.087 95.8963 397.275C96.3482 397.906 97.0661 397.831 97.7678 397.858C98.5183 397.887 99.2692 397.903 100.02 397.906C102.924 397.916 105.825 397.733 108.704 397.359C114.482 396.612 120.142 395.14 125.55 392.976C136.808 388.39 146.842 381.246 154.859 372.109C163.614 362.168 170.059 350.411 173.728 337.682C175.721 331.054 176.821 324.189 176.999 317.27C177.105 312.172 175.589 307.171 172.667 302.99V302.99Z" fill="#FD6584"/>
<path d="M69.1045 388.01C73.8226 387.373 78.5205 389.085 83.2712 389.394C87.2484 389.614 91.2194 388.864 94.8423 387.209C98.4653 385.553 101.631 383.042 104.068 379.891C102.63 382.158 104.054 385.352 106.344 386.753C108.633 388.155 111.461 388.25 114.145 388.304L140.632 388.843L140.132 391.129C142.327 388.661 146.985 390.349 147.901 393.522C148.816 396.695 146.788 400.13 143.983 401.875C141.179 403.62 137.777 404.051 134.491 404.381C113.359 406.496 92.0491 406.06 71.0211 403.082C67.1231 402.53 62.551 401.351 61.2224 397.645C59.6157 393.164 64.3864 388.646 69.1045 388.01Z" fill="#3F3D56"/>
<path d="M149.836 392.198C148.195 387.73 144.487 384.375 141.995 380.319C139.585 376.333 138.368 371.741 138.486 367.085C138.546 365.405 138.137 363.741 137.305 362.28C136.474 360.82 135.252 359.619 133.778 358.812C133.701 358.772 133.626 358.73 133.552 358.686C131.244 357.316 129.839 354.86 128.537 352.513L115.689 329.345C115.689 329.345 111.389 324.431 108.156 325.104C104.922 325.776 102.833 329.174 102.6 332.469C102.367 335.763 103.574 338.973 104.818 342.032C113.228 362.712 124.221 382.244 137.535 400.164C138.744 401.831 140.502 403.02 142.499 403.523C149.055 405.077 151.741 397.385 149.836 392.198Z" fill="#3F3D56"/>
<path d="M58.9288 391.12C60.5699 386.651 64.2774 383.296 66.7699 379.24C69.1794 375.254 70.3969 370.662 70.2781 366.006C70.2187 364.326 70.6276 362.663 71.4591 361.202C72.2907 359.741 73.5122 358.54 74.987 357.733C75.0632 357.693 75.1382 357.651 75.2121 357.607C77.5208 356.237 78.9254 353.781 80.2274 351.434L93.0761 328.267L94.8632 329.776C93.7067 326.683 97.3751 323.352 100.609 324.025C103.842 324.697 105.931 328.096 106.164 331.39C106.397 334.684 105.19 337.894 103.947 340.953C95.5367 361.633 84.5437 381.165 71.2297 399.085C70.0203 400.752 68.263 401.942 66.2653 402.444C59.7094 403.999 57.0239 396.307 58.9288 391.12Z" fill="#3F3D56"/>
<path d="M79.0803 298.35L79.2009 298.168C80.1561 298.133 81.0867 297.856 81.905 297.362C82.7232 296.868 83.402 296.173 83.8772 295.344C84.3524 294.515 84.6084 293.578 84.621 292.622C84.6335 291.667 84.4022 290.724 83.949 289.882L79.0803 298.35Z" fill="#FD6584"/>
<path d="M141.648 263.743C141.129 263.668 140.6 263.746 140.125 263.967C139.07 264.544 138.985 266.126 139.622 267.146C140.358 268.103 141.316 268.865 142.413 269.368C143.513 269.874 144.42 270.723 144.998 271.787C145.464 272.895 144.969 274.471 143.786 274.686L142.914 277.826C144.543 277.385 145.965 276.384 146.93 274.999C147.894 273.614 148.34 271.934 148.189 270.253C148.038 268.572 147.299 266.999 146.103 265.808C144.907 264.618 143.329 263.887 141.648 263.743H141.648Z" fill="#FD6584"/>
<path d="M166.065 272.754C167.435 277.086 167.3 281.754 165.684 286C166.591 285.163 167.322 284.153 167.833 283.029C168.344 281.906 168.626 280.691 168.662 279.457C168.697 278.223 168.486 276.995 168.04 275.844C167.594 274.692 166.922 273.642 166.065 272.754V272.754Z" fill="#FD6584"/>
<path d="M165.483 286.552C165.558 286.371 165.614 286.183 165.684 286C165.232 286.43 164.737 286.812 164.207 287.14L165.483 286.552Z" fill="#FD6584"/>
<path d="M260.867 125.304L270.455 90.4255C270.784 89.2326 271.573 88.219 272.649 87.6072C273.725 86.9953 275 86.8352 276.193 87.1619L283.795 89.2514C284.988 89.5807 286.002 90.3698 286.613 91.4455C287.225 92.5212 287.386 93.7957 287.059 94.9894L277.471 129.868C277.142 131.06 276.353 132.074 275.277 132.686C274.201 133.298 272.927 133.458 271.733 133.131L264.131 131.042C262.938 130.712 261.925 129.923 261.313 128.848C260.701 127.772 260.541 126.497 260.867 125.304Z" fill="#3F3D56"/>
<path d="M276.594 89.1853C275.951 89.0092 275.264 89.0955 274.684 89.4252C274.104 89.755 273.679 90.3012 273.502 90.944L263.914 125.822C263.738 126.465 263.824 127.152 264.154 127.732C264.484 128.312 265.03 128.737 265.673 128.914L273.275 131.004C273.918 131.18 274.605 131.094 275.184 130.764C275.764 130.434 276.189 129.888 276.367 129.245L285.954 94.3669C286.13 93.7236 286.044 93.0368 285.714 92.4572C285.385 91.8775 284.838 91.4522 284.196 91.2747L276.594 89.1853Z" fill="#6C63FF"/>
<path d="M37.7366 279.536C37.4133 279.551 37.0933 279.466 36.8199 279.293C36.5465 279.12 36.3329 278.867 36.2081 278.568C36.0833 278.27 36.0532 277.94 36.122 277.624C36.1908 277.308 36.3552 277.02 36.5928 276.801L36.7009 276.371L36.658 276.267C35.2051 272.803 25.9339 282.461 25.533 285.717C25.3565 287.156 25.431 288.615 25.7531 290.028C22.75 283.478 21.1906 276.358 21.1806 269.152C21.1799 267.343 21.2804 265.536 21.4815 263.739C21.6477 262.266 21.8783 260.803 22.1733 259.351C23.7829 251.471 27.2388 244.086 32.2571 237.801C35.1271 237.961 37.6423 237.524 37.8852 231.962C37.9284 230.972 38.6623 230.116 38.824 229.141C38.55 229.177 38.2715 229.199 37.9975 229.217C37.9121 229.222 37.8223 229.226 37.737 229.231L37.7048 229.232C37.4036 229.246 37.105 229.172 36.8449 229.02C36.5847 228.867 36.3741 228.643 36.2384 228.374C36.1028 228.105 36.0478 227.802 36.0801 227.503C36.1124 227.203 36.2307 226.919 36.4206 226.685C36.5389 226.539 36.6573 226.394 36.7757 226.248C36.9554 226.024 37.1396 225.804 37.3192 225.579C37.34 225.558 37.3595 225.535 37.3776 225.512C37.5843 225.256 37.7908 225.004 37.9975 224.748C37.6203 224.163 37.1131 223.673 36.5152 223.315C34.4446 222.103 31.5878 222.943 30.0921 224.816C28.5919 226.689 28.3089 229.316 28.8299 231.656C29.3423 233.647 30.1899 235.537 31.3363 237.244C31.224 237.387 31.1072 237.527 30.9949 237.67C28.9422 240.31 27.1531 243.144 25.6533 246.133C26.0776 242.818 20.8887 230.848 18.882 228.313C18.3512 227.632 17.6305 227.123 16.8108 226.852C15.9911 226.58 15.1094 226.558 14.2769 226.787C13.4445 227.017 12.6988 227.488 12.1341 228.141C11.5694 228.794 11.211 229.6 11.1043 230.457C11.1001 230.495 11.0961 230.532 11.0922 230.569C11.3903 230.737 11.682 230.916 11.9675 231.105C12.3261 231.344 12.604 231.687 12.7648 232.087C12.9255 232.487 12.9616 232.926 12.8683 233.348C12.775 233.769 12.5567 234.152 12.2419 234.447C11.9272 234.742 11.5307 234.934 11.1044 235L11.0608 235.007C7.07101 240.703 19.8611 255.529 23.0626 252.201C21.5557 256.471 20.6105 260.919 20.2508 265.433C20.0471 268.096 20.0591 270.771 20.2867 273.432L20.2732 273.338C19.5619 267.542 7.35862 258.924 3.79506 259.642C1.7422 260.056 -0.279776 259.962 0.031952 262.032L0.0471239 262.131C0.600238 262.357 1.13878 262.616 1.65963 262.908C1.9577 263.077 2.24945 263.255 2.53492 263.444C2.89354 263.683 3.17142 264.026 3.33214 264.426C3.49287 264.826 3.52895 265.266 3.43566 265.687C3.34237 266.108 3.12405 266.491 2.80931 266.786C2.49458 267.081 2.09811 267.274 1.67185 267.339L1.62817 267.346C1.59674 267.351 1.56978 267.355 1.53838 267.36C-0.277719 273.608 13.1904 283.693 21.3782 280.484H21.3827C22.1941 284.01 23.3698 287.442 24.8907 290.725H37.4225C37.4675 290.585 37.5079 290.442 37.5483 290.302C36.3884 290.375 35.2238 290.306 34.0807 290.096C35.0105 288.955 35.9403 287.805 36.87 286.664C36.8908 286.643 36.9103 286.62 36.9284 286.597C37.4001 286.013 37.8762 285.434 38.3478 284.85L38.3481 284.849C38.3732 283.059 38.1678 281.273 37.737 279.536L37.7366 279.536ZM23.386 251.307L23.3926 251.298L23.386 251.316V251.307ZM20.6101 276.329L20.5023 276.087C20.5068 275.911 20.5068 275.736 20.5023 275.557C20.5023 275.507 20.4933 275.458 20.4933 275.408C20.5338 275.718 20.5697 276.028 20.6146 276.338L20.6101 276.329Z" fill="#F2F2F2"/>
<path d="M575.263 302.1C574.832 303.837 574.627 305.623 574.652 307.413L574.652 307.413C575.124 307.997 575.6 308.577 576.072 309.161C576.09 309.184 576.109 309.207 576.13 309.228C577.06 310.369 577.99 311.519 578.919 312.66C577.776 312.87 576.612 312.939 575.452 312.866C575.492 313.005 575.533 313.149 575.577 313.288H588.109C589.63 310.006 590.806 306.574 591.617 303.048H591.622C599.81 306.256 613.278 296.172 611.462 289.923C611.43 289.919 611.403 289.914 611.372 289.91L611.328 289.903C610.902 289.837 610.505 289.644 610.191 289.35C609.876 289.055 609.658 288.672 609.564 288.251C609.471 287.829 609.507 287.39 609.668 286.99C609.829 286.59 610.106 286.247 610.465 286.008C610.75 285.819 611.042 285.641 611.34 285.472C611.861 285.18 612.4 284.92 612.953 284.695L612.968 284.596C613.28 282.525 611.258 282.619 609.205 282.206C605.641 281.488 593.438 290.106 592.727 295.902L592.713 295.996C592.941 293.335 592.953 290.66 592.749 287.996C592.389 283.483 591.444 279.035 589.937 274.764C593.139 278.093 605.929 263.267 601.939 257.571L601.896 257.564C601.469 257.498 601.073 257.305 600.758 257.01C600.443 256.716 600.225 256.333 600.132 255.911C600.038 255.49 600.074 255.051 600.235 254.651C600.396 254.25 600.674 253.908 601.032 253.669C601.318 253.48 601.609 253.301 601.908 253.133C601.904 253.096 601.9 253.058 601.896 253.021C601.789 252.164 601.431 251.358 600.866 250.705C600.301 250.052 599.555 249.581 598.723 249.351C597.891 249.122 597.009 249.144 596.189 249.416C595.37 249.687 594.649 250.196 594.118 250.877C592.111 253.412 586.922 265.382 587.347 268.696C585.847 265.708 584.058 262.874 582.005 260.234C581.893 260.091 581.776 259.951 581.664 259.808C582.81 258.101 583.658 256.211 584.17 254.22C584.691 251.88 584.408 249.252 582.908 247.379C581.412 245.506 578.555 244.667 576.485 245.879C575.887 246.236 575.38 246.727 575.002 247.312C575.209 247.568 575.416 247.82 575.622 248.076C575.641 248.099 575.66 248.122 575.681 248.143C575.86 248.368 576.045 248.588 576.224 248.812C576.343 248.958 576.461 249.103 576.579 249.249C576.769 249.483 576.888 249.767 576.92 250.067C576.952 250.366 576.897 250.669 576.762 250.938C576.626 251.207 576.415 251.431 576.155 251.584C575.895 251.736 575.596 251.81 575.295 251.796L575.263 251.795C575.178 251.79 575.088 251.786 575.002 251.781C574.728 251.763 574.45 251.741 574.176 251.705C574.338 252.679 575.072 253.536 575.115 254.526C575.358 260.088 577.873 260.525 580.743 260.365C585.761 266.649 589.217 274.035 590.827 281.915C591.123 283.366 591.354 284.828 591.518 286.303C591.72 288.1 591.82 289.907 591.819 291.716C591.809 298.922 590.25 306.042 587.247 312.592C587.569 311.178 587.643 309.72 587.467 308.28C587.066 305.024 577.795 295.367 576.342 298.831L576.299 298.935L576.407 299.364C576.645 299.584 576.809 299.871 576.878 300.188C576.947 300.504 576.917 300.834 576.792 301.132C576.667 301.431 576.454 301.683 576.18 301.857C575.907 302.03 575.587 302.115 575.263 302.1L575.263 302.1ZM589.614 273.88L589.607 273.862L589.614 273.871V273.88ZM592.385 298.902C592.43 298.592 592.466 298.282 592.507 297.972C592.507 298.022 592.498 298.071 592.498 298.12C592.493 298.3 592.493 298.475 592.498 298.65L592.39 298.893L592.385 298.902Z" fill="#F2F2F2"/>
</g>
<defs>
<clipPath id="clip0_123_15">
<rect width="613" height="451" fill="white"/>
</clipPath>
</defs>
</svg>
